<svg width="1465" height="1130" viewBox="0 0 1465 1130" fill="none" xmlns="http://www.w3.org/2000/svg">
<g filter="url(#filter0_d_412_140)">
<path d="M205.658 418.944L142.768 195.048L58.1301 187.643L98.8885 409.603L205.658 418.944ZM136.53 130.872C133.381 117.233 125.983 106.175 114.335 97.6973C102.65 89.0611 89.836 84.133 75.8919 82.9131C61.9478 81.6931 50.8464 84.5288 42.5877 91.4202C34.4545 98.1671 31.9623 108.36 35.111 121.999C38.2597 135.637 45.6764 146.775 57.3611 155.411C69.2078 164.061 82.1033 168.996 96.0474 170.216C109.992 171.436 121.012 168.593 129.108 161.688C137.205 154.782 139.679 144.51 136.53 130.872ZM259.43 104.798C240.46 103.138 224.983 106.29 213.001 114.254C201.18 122.232 193.528 134.848 190.045 152.102C186.525 169.197 187.804 190.908 193.881 217.234L198.275 236.264C204.316 262.431 213.234 284.888 225.029 303.634C236.786 322.221 250.718 336.803 266.822 347.38C283.052 357.812 300.652 363.858 319.622 365.518C328.864 366.326 337.139 366.04 344.446 364.659C351.915 363.293 358.371 360.983 363.816 357.73C369.261 354.477 373.568 350.426 376.738 345.575C380.033 340.58 382.065 334.931 382.834 328.628L387.455 329.032L396.956 370.186L495.943 378.846L417.023 37.0077L318.036 28.3474L347.144 154.426L342.523 154.021C337.428 145.029 330.744 137.064 322.469 130.124C314.158 123.026 304.655 117.3 293.959 112.946C283.263 108.592 271.753 105.876 259.43 104.798ZM319.527 181.377C326.175 181.959 332.514 184.301 338.545 188.402C344.576 192.504 349.911 198.409 354.55 206.118C359.352 213.841 363.089 223.491 365.761 235.068L369.002 249.103C371.638 260.522 372.294 269.902 370.971 277.245C369.773 284.443 367.02 289.718 362.71 293.071C358.363 296.264 352.866 297.57 346.218 296.989C339.733 296.421 333.475 294.087 327.444 289.985C321.377 285.725 315.942 279.734 311.141 272.01C306.465 264.143 302.809 254.5 300.173 243.081L296.933 229.046C294.296 217.628 293.577 208.32 294.775 201.121C296.135 193.937 298.988 188.748 303.334 185.555C307.644 182.202 313.042 180.81 319.527 181.377ZM620.075 393.202C633.046 394.337 643.525 393.622 651.512 391.058C659.462 388.335 665.446 384.663 669.463 380.042C673.443 375.263 675.883 370.349 676.782 365.3L681.647 365.725L688.566 395.698L780.5 403.742L741.837 236.272C736.528 213.276 726.886 194.563 712.91 180.133C699.097 165.717 682.433 154.78 662.918 147.324C643.404 139.867 622.459 135.16 600.084 133.202C576.573 131.145 557.757 132.219 543.635 136.422C529.639 140.48 519.306 146.646 512.637 154.92C506.094 163.049 502.166 172.184 500.853 182.324C499.703 192.479 500.119 202.538 502.101 212.501L594.035 220.544C593.046 216.262 593.222 212.548 594.561 209.402C595.863 206.097 598.24 203.664 601.692 202.101C605.144 200.539 609.464 199.984 614.653 200.438C622.111 201.091 628.469 203.512 633.725 207.701C639.108 211.746 642.586 217.178 644.16 223.997L648.499 242.79L592.317 237.874C561.51 235.179 539.548 240.172 526.43 252.854C513.312 265.536 509.518 283.85 515.046 307.797C520.795 332.695 533.332 352.594 552.658 367.492C571.984 382.391 594.457 390.961 620.075 393.202ZM641.352 332.599C634.542 332.003 627.941 329.561 621.55 325.272C615.122 320.825 611.065 314.954 609.381 307.659C607.77 300.681 609.263 295.451 613.861 291.969C618.422 288.328 625.161 286.897 634.079 287.678L659.373 289.891L664.645 312.727C665.707 317.326 665.244 321.171 663.257 324.26C661.269 327.349 658.306 329.654 654.368 331.174C650.392 332.535 646.054 333.01 641.352 332.599ZM826.954 407.806L925.698 416.445L846.778 74.6064L748.034 65.9674L826.954 407.806ZM1097.1 436.335C1119.31 438.278 1137.52 436.997 1151.74 432.491C1165.91 427.827 1176.68 421.155 1184.05 412.477C1191.55 403.654 1196.32 394.049 1198.37 383.662C1200.38 373.117 1200.34 362.935 1198.23 353.117L1110.67 345.456C1111.92 350.849 1111.28 355.299 1108.75 358.807C1106.39 362.329 1102.77 364.887 1097.89 366.481C1092.98 367.916 1087.28 368.35 1080.8 367.782C1071.88 367.002 1062.93 363.345 1053.96 356.81C1044.98 350.276 1039.14 341.14 1036.43 329.405L1033.9 318.462L1194.18 332.485L1187.97 305.604C1181.93 279.437 1171.42 256.608 1156.43 237.116C1141.41 217.467 1123.2 201.889 1101.8 190.382C1080.52 178.731 1057.23 171.799 1031.94 169.587C1008.92 167.572 988.621 170.147 971.052 177.312C953.609 184.332 941.092 196.522 933.503 213.883C925.914 231.244 925.451 254.356 932.115 283.219L935.74 298.919C942.403 327.783 953.552 351.988 969.185 371.536C984.819 391.084 1003.65 406.25 1025.68 417.034C1047.67 427.66 1071.48 434.094 1097.1 436.335ZM1022.37 268.507C1020.72 261.37 1020.74 255.234 1022.41 250.097C1024.08 244.96 1027.08 241.105 1031.42 238.532C1035.91 235.973 1041.48 234.984 1048.13 235.565C1054.77 236.147 1060.88 238.157 1066.44 241.596C1072 245.035 1076.7 249.564 1080.54 255.183C1084.54 260.816 1087.36 267.201 1089.01 274.337L1022.37 268.507ZM491.13 950.472C510.262 952.146 525.676 949.066 537.371 941.232C549.192 933.254 556.844 920.638 560.327 903.384C563.81 886.131 562.476 864.182 556.325 837.539L551.932 818.509C545.744 791.707 536.79 769.092 525.068 750.663C513.311 732.076 499.434 717.732 483.44 707.631C467.571 697.386 450.07 691.426 430.938 689.752C421.695 688.944 413.421 689.23 406.114 690.61C398.771 691.833 392.458 694.077 387.175 697.344C381.856 700.453 377.549 704.504 374.254 709.499C371.084 714.35 368.953 719.912 367.86 726.188L362.995 725.762L353.604 685.084L254.617 676.424L333.482 1018.02L432.469 1026.68L403.306 900.368L408.171 900.794C413.589 909.814 420.454 917.873 428.765 924.971C437.076 932.069 446.517 937.868 457.088 942.366C467.622 946.706 478.969 949.408 491.13 950.472ZM430.899 874.347C424.413 873.779 418.155 871.445 412.125 867.344C406.057 863.083 400.623 857.092 395.822 849.369C391.146 841.501 387.49 831.858 384.853 820.44L381.613 806.405C378.94 794.828 378.203 785.44 379.401 778.242C380.76 771.057 383.614 765.868 387.96 762.675C392.306 759.481 397.722 758.168 404.208 758.736C411.018 759.331 417.376 761.752 423.281 765.998C429.311 770.1 434.646 776.005 439.286 783.714C443.925 791.423 447.563 800.987 450.199 812.405L453.439 826.44C456.075 837.858 456.813 847.246 455.652 854.603C454.454 861.801 451.7 867.077 447.39 870.429C443.206 873.637 437.709 874.943 430.899 874.347ZM622.699 959.885L721.443 968.524L642.523 626.686L543.78 618.047L622.699 959.885ZM846.791 982.987C859.762 984.122 870.241 983.407 878.228 980.843C886.178 978.12 892.162 974.448 896.179 969.827C900.159 965.048 902.599 960.133 903.499 955.084L908.363 955.51L915.283 985.483L1007.22 993.526L968.553 826.056C963.244 803.061 953.602 784.348 939.626 769.918C925.813 755.501 909.149 744.565 889.635 737.108C870.12 729.652 849.175 724.945 826.8 722.987C803.289 720.93 784.473 722.003 770.351 726.206C756.355 730.265 746.022 736.431 739.353 744.704C732.81 752.834 728.882 761.968 727.57 772.109C726.419 782.264 726.835 792.323 728.817 802.285L820.751 810.328C819.763 806.047 819.938 802.333 821.277 799.187C822.579 795.882 824.956 793.449 828.408 791.886C831.86 790.323 836.181 789.769 841.369 790.223C848.828 790.875 855.185 793.296 860.442 797.485C865.824 801.53 869.302 806.962 870.876 813.782L875.215 832.574L819.033 827.659C788.226 824.964 766.264 829.957 753.146 842.639C740.029 855.32 736.234 873.635 741.763 897.582C747.511 922.48 760.048 942.379 779.374 957.277C798.701 972.176 821.173 980.746 846.791 982.987ZM868.068 922.384C861.258 921.788 854.657 919.346 848.266 915.057C841.838 910.61 837.782 904.739 836.097 897.444C834.486 890.466 835.98 885.236 840.577 881.754C845.138 878.113 851.877 876.682 860.795 877.462L886.089 879.675L891.361 902.512C892.423 907.111 891.96 910.955 889.973 914.044C887.985 917.134 885.022 919.438 881.084 920.958C877.109 922.32 872.77 922.795 868.068 922.384ZM1251.54 763.643L1146.96 754.494L1153.52 933.606L1149.63 933.265L1074.73 748.174L966.254 738.684L1106 998.206L1106.38 999.872C1108.51 1009.07 1106.66 1015.51 1100.84 1019.2C1095.05 1023.04 1084.86 1024.33 1070.27 1023.05C1065.41 1022.62 1060.59 1022.05 1055.81 1021.32C1051.2 1020.6 1047.68 1019.83 1045.27 1019L1059.93 1082.51C1064.85 1083.88 1072.03 1085.36 1081.45 1086.96C1091.04 1088.57 1099.8 1089.73 1107.75 1090.43C1145.69 1093.74 1174.02 1089.15 1192.74 1076.65C1211.62 1064.16 1223.64 1041.91 1228.8 1009.88L1231.47 993.567C1231.61 992.802 1232.15 986.557 1233.1 974.83C1234.17 962.959 1235.59 946.769 1237.37 926.258C1239.28 905.603 1241.41 881.472 1243.77 853.864C1246.14 826.257 1248.73 796.184 1251.54 763.643ZM1326.36 983.456C1329.51 997.094 1336.92 1008.23 1348.61 1016.87C1360.45 1025.52 1373.35 1030.45 1387.29 1031.67C1401.24 1032.89 1412.26 1030.05 1420.35 1023.15C1428.45 1016.24 1430.93 1005.97 1427.78 992.329C1424.63 978.69 1417.23 967.632 1405.58 959.154C1393.9 950.518 1381.08 945.59 1367.14 944.37C1353.19 943.15 1342.09 945.986 1333.83 952.877C1325.7 959.624 1323.21 969.817 1326.36 983.456ZM1257.67 697.286L1319.83 921.119L1404.47 928.524L1364.44 706.627L1257.67 697.286Z" fill="white"/>
</g>
<defs>
<filter id="filter0_d_412_140" x="0.536465" y="0.919922" width="1463.63" height="1128.34" filterUnits="userSpaceOnUse" color-interpolation-filters="sRGB">
<feFlood flood-opacity="0" result="BackgroundImageFix"/>
<feColorMatrix in="SourceAlpha" type="matrix" values="0 0 0 0 0 0 0 0 0 0 0 0 0 0 0 0 0 0 127 0" result="hardAlpha"/>
<feOffset dy="4"/>
<feGaussianBlur stdDeviation="2"/>
<feComposite in2="hardAlpha" operator="out"/>
<feColorMatrix type="matrix" values="0 0 0 0 0 0 0 0 0 0 0 0 0 0 0 0 0 0 0.25 0"/>
<feBlend mode="normal" in2="BackgroundImageFix" result="effect1_dropShadow_412_140"/>
<feBlend mode="normal" in="SourceGraphic" in2="effect1_dropShadow_412_140" result="shape"/>
</filter>
</defs>
</svg>
